<svg width="97" height="21" viewBox="0 0 97 21" fill="none" xmlns="http://www.w3.org/2000/svg">
<path d="M18.0576 6.78382C16.8766 4.29556 14.5542 3.94895 13.4619 3.61324C13.4619 3.61324 12.621 1.57156 8.94319 1.35161C8.94319 1.35161 10.1603 3.01782 8.68284 3.56528C7.20538 4.11274 4.9421 4.76609 3.48182 7.64215C2.02056 10.5203 1.93826 15.571 6.82258 17.361C6.82258 17.361 8.04108 19.3467 10.5849 18.6193C10.5849 18.6193 7.07724 16.7713 8.68499 13.6686C8.68499 13.6686 7.11192 13.5608 6.54581 15.9709C6.54581 15.9709 4.6041 14.4228 5.03078 11.8894C5.45648 9.3581 7.65454 7.8949 10.0415 8.41332C10.0415 8.41332 10.395 9.59501 9.52695 10.7374C9.52695 10.7374 11.6192 10.9133 12.6795 9.01033C12.6795 9.01033 14.6323 10.0196 15.4195 11.1898C16.2067 12.3599 16.6059 13.8065 17.0099 13.7868C17.414 13.7672 17.7449 13.4484 17.5888 11.4738C17.5888 11.4738 19.2417 9.27098 18.0628 6.78366L18.0576 6.78382ZM16.9313 9.55502C16.7308 9.51606 16.6008 9.3302 16.6393 9.13708C16.6779 8.94396 16.8739 8.82029 17.0754 8.85721C17.2769 8.89414 17.4059 9.08204 17.3674 9.27515C17.3289 9.46827 17.1328 9.59195 16.9313 9.55502Z" fill="#8C8D96"/>
<path d="M10.6266 14.7566L12.9627 18.7149L15.2988 14.7566L12.9627 12.5576L10.6266 14.7566Z" fill="#4BCACD"/>
<path d="M24.9713 6.212C25.5233 6.212 26.0153 6.376 26.4473 6.704C26.8873 7.024 27.2273 7.484 27.4673 8.084C27.7153 8.676 27.8393 9.376 27.8393 10.184C27.8393 11 27.7153 11.708 27.4673 12.308C27.2273 12.9 26.8873 13.36 26.4473 13.688C26.0153 14.008 25.5233 14.168 24.9713 14.168C24.4193 14.168 23.9273 14.008 23.4953 13.688C23.0633 13.36 22.7233 12.9 22.4753 12.308C22.2273 11.708 22.1033 11 22.1033 10.184C22.1033 9.376 22.2273 8.676 22.4753 8.084C22.7233 7.484 23.0633 7.024 23.4953 6.704C23.9273 6.376 24.4193 6.212 24.9713 6.212ZM24.9713 7.664C24.7073 7.664 24.4713 7.76 24.2633 7.952C24.0633 8.144 23.9073 8.428 23.7953 8.804C23.6833 9.172 23.6273 9.632 23.6273 10.184C23.6273 10.728 23.6833 11.192 23.7953 11.576C23.9073 11.952 24.0633 12.236 24.2633 12.428C24.4713 12.62 24.7073 12.716 24.9713 12.716C25.2513 12.716 25.4913 12.62 25.6913 12.428C25.8913 12.236 26.0473 11.952 26.1593 11.576C26.2713 11.192 26.3273 10.728 26.3273 10.184C26.3273 9.632 26.2713 9.172 26.1593 8.804C26.0473 8.428 25.8913 8.144 25.6913 7.952C25.4913 7.76 25.2513 7.664 24.9713 7.664ZM29.6633 5.432H31.2593V16.58H29.6633V5.432ZM27.3713 9.452H30.3353V10.724H27.3713V9.452ZM33.7903 10.58H41.6023V11.84H33.7903V10.58ZM32.6143 13.928H42.6823V15.224H32.6143V13.928ZM33.7903 6.356H41.5183V7.652H35.3743V11.108H33.7903V6.356ZM50.3854 5.456H51.9934V16.568H50.3854V5.456ZM51.6454 9.584H53.6014V10.904H51.6454V9.584ZM43.6294 6.32H45.2134V9.032H47.4454V6.32H49.0294V13.988H43.6294V6.32ZM45.2134 10.268V12.716H47.4454V10.268H45.2134ZM61.5925 5.432H63.1885V16.58H61.5925V5.432ZM57.2005 6.212C57.7685 6.212 58.2725 6.376 58.7125 6.704C59.1525 7.024 59.4965 7.484 59.7445 8.084C60.0005 8.676 60.1285 9.376 60.1285 10.184C60.1285 11 60.0005 11.708 59.7445 12.308C59.4965 12.9 59.1525 13.36 58.7125 13.688C58.2725 14.008 57.7685 14.168 57.2005 14.168C56.6405 14.168 56.1405 14.008 55.7005 13.688C55.2605 13.36 54.9125 12.9 54.6565 12.308C54.4085 11.708 54.2845 11 54.2845 10.184C54.2845 9.376 54.4085 8.676 54.6565 8.084C54.9125 7.484 55.2605 7.024 55.7005 6.704C56.1405 6.376 56.6405 6.212 57.2005 6.212ZM57.2005 7.664C56.9285 7.664 56.6885 7.76 56.4805 7.952C56.2725 8.144 56.1085 8.428 55.9885 8.804C55.8765 9.172 55.8205 9.632 55.8205 10.184C55.8205 10.728 55.8765 11.192 55.9885 11.576C56.1085 11.952 56.2725 12.236 56.4805 12.428C56.6885 12.62 56.9285 12.716 57.2005 12.716C57.4805 12.716 57.7245 12.62 57.9325 12.428C58.1405 12.236 58.3005 11.952 58.4125 11.576C58.5325 11.192 58.5925 10.728 58.5925 10.184C58.5925 9.632 58.5325 9.172 58.4125 8.804C58.3005 8.428 58.1405 8.144 57.9325 7.952C57.7245 7.76 57.4805 7.664 57.2005 7.664ZM72.3795 5.432H73.9755V16.58H72.3795V5.432ZM70.4355 9.32H72.7515V10.604H70.4355V9.32ZM67.2075 7.196H68.4795V8.192C68.4795 8.864 68.4155 9.524 68.2875 10.172C68.1595 10.82 67.9675 11.424 67.7115 11.984C67.4635 12.544 67.1475 13.04 66.7635 13.472C66.3795 13.904 65.9315 14.252 65.4195 14.516L64.4835 13.256C64.9475 13.04 65.3515 12.752 65.6955 12.392C66.0395 12.024 66.3235 11.616 66.5475 11.168C66.7715 10.712 66.9355 10.232 67.0395 9.728C67.1515 9.216 67.2075 8.704 67.2075 8.192V7.196ZM67.5795 7.196H68.8275V8.192C68.8275 8.68 68.8795 9.168 68.9835 9.656C69.0955 10.136 69.2635 10.596 69.4875 11.036C69.7195 11.468 70.0075 11.856 70.3515 12.2C70.6955 12.544 71.0995 12.824 71.5635 13.04L70.6395 14.288C70.1115 14.04 69.6555 13.708 69.2715 13.292C68.8875 12.876 68.5715 12.4 68.3235 11.864C68.0755 11.32 67.8875 10.736 67.7595 10.112C67.6395 9.488 67.5795 8.848 67.5795 8.192V7.196ZM64.9275 6.512H71.1075V7.796H64.9275V6.512ZM75.3306 14.048H85.3986V15.344H75.3306V14.048ZM79.5546 11.936H81.1386V14.564H79.5546V11.936ZM76.4706 6.164H84.2586V9.872H78.0666V11.732H76.4826V8.624H82.6746V7.436H76.4706V6.164ZM76.4826 11.108H84.5106V12.38H76.4826V11.108ZM86.4537 11.012H87.2097C87.7457 11.012 88.2217 11.008 88.6377 11C89.0617 10.984 89.4657 10.96 89.8497 10.928C90.2417 10.888 90.6377 10.836 91.0377 10.772L91.1817 12.008C90.7737 12.088 90.3697 12.148 89.9697 12.188C89.5697 12.22 89.1457 12.244 88.6977 12.26C88.2577 12.268 87.7617 12.272 87.2097 12.272H86.4537V11.012ZM86.4297 6.284H90.3537V9.836H87.9897V11.576H86.4537V8.66H88.8057V7.52H86.4297V6.284ZM90.7377 8.228H92.8257V9.512H90.7377V8.228ZM93.9537 5.444H95.4777V13.796H93.9537V5.444ZM91.7217 5.648H93.2217V13.556H91.7217V5.648ZM87.9897 15.092H95.7537V16.376H87.9897V15.092ZM87.9897 13.004H89.5977V16.052H87.9897V13.004Z" fill="#8C8D96"/>
</svg>
