<svg viewBox="0 0 20 20" fill="none" xmlns="http://www.w3.org/2000/svg">
    <path d="M7.88542 10L13.9583 3.92708C14.1528 3.73264 14.2483 3.50174 14.2448 3.23438C14.2413 2.96701 14.1424 2.73611 13.9479 2.54167C13.7535 2.34722 13.5226 2.25 13.2552 2.25C12.9879 2.25 12.7569 2.34722 12.5625 2.54167L6.21875 8.89583C6.05903 9.05556 5.94271 9.22917 5.86979 9.41667C5.79688 9.60417 5.76042 9.79861 5.76042 10C5.76042 10.2014 5.79688 10.3958 5.86979 10.5833C5.94271 10.7708 6.05903 10.9444 6.21875 11.1042L12.5729 17.4583C12.7674 17.6528 12.9965 17.7483 13.2604 17.7448C13.5243 17.7413 13.7535 17.6424 13.9479 17.4479C14.1424 17.2535 14.2396 17.0226 14.2396 16.7552C14.2396 16.4878 14.1424 16.2569 13.9479 16.0625L7.88542 10Z"
          fill="currentColor"/>
</svg>
