<svg width="16" height="16" viewBox="0 0 16 16" fill="none" xmlns="http://www.w3.org/2000/svg">
    <path d="M6.38332 9.54992L11.6667 4.26659C11.8722 4.06103 12.1139 3.95825 12.3917 3.95825C12.6694 3.95825 12.9111 4.06103 13.1167 4.26659C13.3222 4.47214 13.425 4.71242 13.425 4.98742C13.425 5.26242 13.3222 5.5027 13.1167 5.70825L7.10832 11.7083C6.90277 11.9138 6.6611 12.0166 6.38332 12.0166C6.10555 12.0166 5.86388 11.9138 5.65832 11.7083L2.89166 8.94159C2.6861 8.73603 2.58193 8.49575 2.57916 8.22075C2.57638 7.94575 2.67777 7.70547 2.88332 7.49992C3.08888 7.29436 3.32916 7.19159 3.60416 7.19159C3.87916 7.19159 4.11943 7.29436 4.32499 7.49992L6.38332 9.54992Z"
          fill="currentColor"/>
</svg>
