<svg width="20" height="20" viewBox="0 0 20 20" fill="none" xmlns="http://www.w3.org/2000/svg">
<path d="M10 11.1041L5.94796 15.1562C5.79518 15.309 5.61115 15.3836 5.39587 15.3802C5.1806 15.3767 4.99657 15.2986 4.84379 15.1458C4.69796 14.993 4.62678 14.8107 4.63025 14.5989C4.63372 14.3871 4.70837 14.2083 4.85421 14.0625L8.89587 9.99995L4.85421 5.93745C4.70837 5.79162 4.63546 5.6128 4.63546 5.40099C4.63546 5.18919 4.70837 5.0069 4.85421 4.85412C5.00004 4.70134 5.1806 4.62322 5.39587 4.61974C5.61115 4.61627 5.79518 4.69093 5.94796 4.8437L10 8.89579L14.0521 4.8437C14.2049 4.69093 14.3889 4.61627 14.6042 4.61974C14.8195 4.62322 15.0035 4.70134 15.1563 4.85412C15.3021 5.0069 15.3733 5.18919 15.3698 5.40099C15.3664 5.6128 15.2917 5.79162 15.1459 5.93745L11.1042 9.99995L15.1459 14.0625C15.2917 14.2083 15.3646 14.3871 15.3646 14.5989C15.3646 14.8107 15.2917 14.993 15.1459 15.1458C15 15.2986 14.8195 15.3767 14.6042 15.3802C14.3889 15.3836 14.2049 15.309 14.0521 15.1562L10 11.1041Z" fill="#686E75"/>
</svg>
