<svg viewBox="0 0 20 20" fill="none" xmlns="http://www.w3.org/2000/svg">
    <path d="M9.99999 10.375L12.8958 7.47919C13.1389 7.23613 13.4288 7.1146 13.7656 7.1146C14.1024 7.1146 14.3958 7.23613 14.6458 7.47919C14.8958 7.72224 15.0226 8.01391 15.026 8.35419C15.0295 8.69446 14.9062 8.9896 14.6562 9.2396L10.9062 12.9896C10.7882 13.1077 10.6476 13.2031 10.4844 13.2761C10.3212 13.349 10.1597 13.3854 9.99999 13.3854C9.84027 13.3854 9.67881 13.349 9.51561 13.2761C9.35242 13.2031 9.2118 13.1077 9.09374 12.9896L5.34374 9.2396C5.09374 8.9896 4.97048 8.69446 4.97395 8.35419C4.97742 8.01391 5.10416 7.72224 5.35416 7.47919C5.60416 7.23613 5.89756 7.1146 6.23436 7.1146C6.57117 7.1146 6.8611 7.23613 7.10416 7.47919L9.99999 10.375Z"
          fill="currentColor"/>
</svg>
