<svg width="33" height="33" viewBox="0 0 33 33" fill="none" xmlns="http://www.w3.org/2000/svg">
<path d="M6.875 28.875C6.11875 28.875 5.47135 28.6057 4.93281 28.0672C4.39427 27.5286 4.125 26.8813 4.125 26.125V6.875C4.125 6.11875 4.39427 5.47135 4.93281 4.93281C5.47135 4.39427 6.11875 4.125 6.875 4.125H12.6156C12.8677 3.32292 13.3604 2.66406 14.0938 2.14844C14.8271 1.63281 15.6292 1.375 16.5 1.375C17.4167 1.375 18.2359 1.63281 18.9578 2.14844C19.6797 2.66406 20.1667 3.32292 20.4188 4.125H26.125C26.8813 4.125 27.5286 4.39427 28.0672 4.93281C28.6057 5.47135 28.875 6.11875 28.875 6.875V12.375C28.875 12.7646 28.7432 13.0911 28.4797 13.3547C28.2161 13.6182 27.8896 13.75 27.5 13.75C27.1104 13.75 26.7839 13.6182 26.5203 13.3547C26.2568 13.0911 26.125 12.7646 26.125 12.375V6.875H23.375V9.625C23.375 10.0146 23.2432 10.3411 22.9797 10.6047C22.7161 10.8682 22.3896 11 22 11H11C10.6104 11 10.2839 10.8682 10.0203 10.6047C9.75677 10.3411 9.625 10.0146 9.625 9.625V6.875H6.875V26.125H12.375C12.7646 26.125 13.0911 26.2568 13.3547 26.5203C13.6182 26.7839 13.75 27.1104 13.75 27.5C13.75 27.8896 13.6182 28.2161 13.3547 28.4797C13.0911 28.7432 12.7646 28.875 12.375 28.875H6.875ZM16.5 6.875C16.8896 6.875 17.2161 6.74323 17.4797 6.47969C17.7432 6.21615 17.875 5.88958 17.875 5.5C17.875 5.11042 17.7432 4.78385 17.4797 4.52031C17.2161 4.25677 16.8896 4.125 16.5 4.125C16.1104 4.125 15.7839 4.25677 15.5203 4.52031C15.2568 4.78385 15.125 5.11042 15.125 5.5C15.125 5.88958 15.2568 6.21615 15.5203 6.47969C15.7839 6.74323 16.1104 6.875 16.5 6.875ZM21.3125 27.5C19.5938 27.5 18.1328 26.8984 16.9297 25.6953C15.7266 24.4922 15.125 23.0312 15.125 21.3125C15.125 19.5938 15.7266 18.1328 16.9297 16.9297C18.1328 15.7266 19.5938 15.125 21.3125 15.125C23.0312 15.125 24.4922 15.7266 25.6953 16.9297C26.8984 18.1328 27.5 19.5938 27.5 21.3125C27.5 21.9083 27.4141 22.4813 27.2422 23.0312C27.0703 23.5813 26.8354 24.1083 26.5375 24.6125L29.2875 27.3625C29.5396 27.6146 29.6656 27.9354 29.6656 28.325C29.6656 28.7146 29.5396 29.0354 29.2875 29.2875C29.0354 29.5396 28.7146 29.6656 28.325 29.6656C27.9354 29.6656 27.6146 29.5396 27.3625 29.2875L24.6125 26.5375C24.1083 26.8354 23.5813 27.0703 23.0312 27.2422C22.4813 27.4141 21.9083 27.5 21.3125 27.5ZM21.3125 24.75C22.275 24.75 23.0885 24.4177 23.7531 23.7531C24.4177 23.0885 24.75 22.275 24.75 21.3125C24.75 20.35 24.4177 19.5365 23.7531 18.8719C23.0885 18.2073 22.275 17.875 21.3125 17.875C20.35 17.875 19.5365 18.2073 18.8719 18.8719C18.2073 19.5365 17.875 20.35 17.875 21.3125C17.875 22.275 18.2073 23.0885 18.8719 23.7531C19.5365 24.4177 20.35 24.75 21.3125 24.75Z" fill="currentColor"/>
</svg>
