<svg viewBox="0 0 18 18" fill="none" xmlns="http://www.w3.org/2000/svg">
    <g clip-path="url(#clip0_36_794)">
        <path d="M8.91509 13.9458C9.25104 13.9458 9.54021 13.8246 9.78262 13.5821C10.025 13.3397 10.1462 13.0496 10.1462 12.7117C10.1462 12.3737 10.025 12.0881 9.78262 11.8547C9.54021 11.6214 9.25104 11.5047 8.91509 11.5047C8.57915 11.5047 8.28998 11.6214 8.04757 11.8547C7.80517 12.0881 7.68396 12.3737 7.68396 12.7117C7.68396 13.0496 7.80517 13.3397 8.04757 13.5821C8.28998 13.8246 8.57915 13.9458 8.91509 13.9458ZM9 18C7.74184 18 6.56696 17.764 5.47535 17.2921C4.38361 16.8203 3.43394 16.1799 2.62634 15.3709C1.81889 14.5619 1.17927 13.6121 0.707476 12.5215C0.235826 11.4309 0 10.257 0 9C0 7.74184 0.235967 6.56696 0.707901 5.47535C1.17969 4.38361 1.82009 3.43394 2.6291 2.62634C3.43811 1.81889 4.38792 1.17927 5.47854 0.707477C6.56915 0.235826 7.74297 0 9 0C10.2582 0 11.433 0.235966 12.5246 0.7079C13.6164 1.17969 14.5661 1.82009 15.3737 2.6291C16.1811 3.43811 16.8207 4.38792 17.2925 5.47854C17.7642 6.56915 18 7.74297 18 9C18 10.2582 17.764 11.433 17.2921 12.5246C16.8203 13.6164 16.1799 14.5661 15.3709 15.3737C14.5619 16.1811 13.6121 16.8207 12.5215 17.2925C11.4309 17.7642 10.257 18 9 18ZM9.02123 5.85849C9.2666 5.85849 9.48007 5.93936 9.66163 6.10111C9.84318 6.26285 9.93396 6.465 9.93396 6.70755C9.93396 6.94259 9.86851 7.15698 9.73762 7.35071C9.60672 7.54458 9.45283 7.7158 9.27594 7.86439C8.95047 8.14741 8.6533 8.46049 8.38443 8.80366C8.11557 9.14682 7.98467 9.53066 7.99175 9.95519C7.99175 10.1942 8.08167 10.392 8.26153 10.5485C8.44125 10.7048 8.65097 10.783 8.89068 10.783C9.14752 10.783 9.36835 10.6986 9.55316 10.5298C9.73811 10.361 9.8792 10.1553 9.97642 9.91274C10.0605 9.67769 10.1752 9.47031 10.3207 9.29059C10.4662 9.11101 10.6274 8.93632 10.8042 8.76651C11.1226 8.48349 11.3791 8.14917 11.5737 7.76356C11.7683 7.37795 11.8656 6.97642 11.8656 6.55896C11.8656 5.82764 11.5967 5.22028 11.059 4.73689C10.5212 4.25349 9.88351 4.01179 9.14583 4.01179C8.56974 4.01179 8.03526 4.13738 7.54238 4.38856C7.0495 4.63974 6.64033 5.00236 6.31486 5.47642C6.1875 5.6816 6.14759 5.9008 6.19514 6.13401C6.24269 6.36722 6.37104 6.54425 6.58019 6.66509C6.8066 6.82076 7.05425 6.86498 7.32311 6.79776C7.59198 6.73054 7.8184 6.5908 8.00236 6.37854C8.12972 6.22627 8.28269 6.10153 8.46127 6.00432C8.63986 5.9071 8.82651 5.85849 9.02123 5.85849Z"
              fill="#3F4150"
/>
    </g>
    <defs>
        <clipPath id="clip0_36_794">
            <rect width="18" height="18" fill="white"/>
        </clipPath>
    </defs>
</svg>
