<svg width="31" height="32" viewBox="0 0 31 32" fill="none" xmlns="http://www.w3.org/2000/svg">
<line x1="19.1424" y1="2.08861" x2="3.72091" y2="24.1738" stroke="currentColor" stroke-width="3" stroke-linecap="round"/>
<path d="M20 5.83643C21.5971 7.8142 22.3975 10.1451 22.3975 12.8315C22.3974 14.0947 22.1968 15.2861 21.7949 16.4058C21.3929 17.5256 20.8474 18.517 20.1582 19.3784L29.8057 29.0259C30.1214 29.3416 30.2802 29.744 30.2803 30.2319C30.2803 30.7201 30.1215 31.1221 29.8057 31.438C29.4898 31.7539 29.0878 31.9126 28.5996 31.9126C28.1117 31.9125 27.7093 31.7538 27.3936 31.438L17.7461 21.7905C16.8846 22.4797 15.8933 23.0252 14.7734 23.4272C13.6538 23.8291 12.4624 24.0297 11.1992 24.0298C9.9431 24.0298 8.76524 23.8516 7.66406 23.5024L9.78516 20.4653C10.2399 20.5427 10.7113 20.5845 11.1992 20.5845C13.3527 20.5844 15.183 19.8302 16.6904 18.3228C18.1979 16.8153 18.9521 14.985 18.9521 12.8315C18.9521 11.356 18.5973 10.0321 17.8896 8.85986L20 5.83643ZM11.1992 1.63232C12.6157 1.63237 13.9329 1.85624 15.1523 2.30029L13.0674 5.28662C12.4742 5.14823 11.8517 5.07767 11.1992 5.07764C9.0456 5.07764 7.21456 5.83182 5.70703 7.33936C4.1995 8.84689 3.44531 10.6779 3.44531 12.8315C3.44538 14.4707 3.88342 15.9221 4.75684 17.187L2.68066 20.1606C0.895703 18.1127 8.35341e-05 15.6715 0 12.8315C0 9.70162 1.08398 7.05225 3.25195 4.88428C5.41993 2.7163 8.06929 1.63232 11.1992 1.63232Z" fill="currentColor"/>
</svg>
