<svg width="24" height="24" viewBox="0 0 24 24" fill="none" xmlns="http://www.w3.org/2000/svg">
<path d="M2.60001 17.6751C2.43334 17.5084 2.35142 17.3098 2.35426 17.0793C2.35692 16.8487 2.43884 16.6528 2.60001 16.4918L8.15826 10.9251C8.47426 10.6084 8.86576 10.4501 9.33276 10.4501C9.79976 10.4501 10.1916 10.6084 10.5083 10.9251L13.45 13.8751L19.2 8.14185H17.05C16.8138 8.14185 16.6159 8.06168 16.4563 7.90135C16.2966 7.74101 16.2168 7.54243 16.2168 7.3056C16.2168 7.0686 16.2966 6.87093 16.4563 6.7126C16.6159 6.55426 16.8138 6.4751 17.05 6.4751H21.1668C21.4028 6.4751 21.6007 6.55493 21.7605 6.7146C21.9202 6.87443 22 7.07235 22 7.30835V11.4251C22 11.6529 21.9221 11.8488 21.7663 12.0126C21.6104 12.1764 21.4174 12.2583 21.1873 12.2583C20.9569 12.2583 20.7598 12.1764 20.5958 12.0126C20.4319 11.8488 20.35 11.6529 20.35 11.4251V9.34185L14.6083 15.0668C14.2924 15.3835 13.901 15.5418 13.434 15.5418C12.9668 15.5418 12.5749 15.3835 12.2583 15.0668L9.31676 12.1418L3.78326 17.6751C3.62226 17.8363 3.42509 17.9168 3.19176 17.9168C2.95842 17.9168 2.76117 17.8363 2.60001 17.6751Z" fill="black"/>
</svg>
